<svg width="64" height="64" viewBox="0 0 64 64" fill="none" xmlns="http://www.w3.org/2000/svg">
<g id="Document Ribbon">
<path id="Shape" d="M19.1999 6.39999C15.6653 6.39999 12.7999 9.26525 12.7999 12.7997V29.2023C13.8227 28.939 14.8949 28.799 15.9999 28.799V12.7997C15.9999 11.0325 17.4326 9.59986 19.1999 9.59986H31.9999V20.7994C31.9999 23.4502 34.1489 25.5992 36.7999 25.5992H47.9999V51.1981C47.9999 52.9653 46.5672 54.3979 44.7999 54.3979H25.5999V57.5978H44.7999C48.3345 57.5978 51.1999 54.7325 51.1999 51.1981V23.7247C51.1999 22.4518 50.6942 21.2309 49.794 20.3308L37.2685 7.80582C36.3684 6.90568 35.1475 6.39999 33.8744 6.39999H19.1999ZM47.3372 22.3993H36.7999C35.9162 22.3993 35.1999 21.683 35.1999 20.7994V10.2626L47.3372 22.3993ZM25.5999 41.5985C25.5999 46.9002 21.3018 51.1981 15.9999 51.1981C10.698 51.1981 6.3999 46.9002 6.3999 41.5985C6.3999 36.2968 10.698 31.9989 15.9999 31.9989C21.3018 31.9989 25.5999 36.2968 25.5999 41.5985ZM22.3999 52.6856C20.5172 53.7746 18.3313 54.3979 15.9999 54.3979C13.6685 54.3979 11.4826 53.7746 9.5999 52.6856V59.9988C9.5999 60.6193 10.2757 61.0036 10.809 60.6863L15.9999 57.5978L21.1908 60.6863C21.7241 61.0036 22.3999 60.6193 22.3999 59.9988V52.6856Z" fill="#07436F"/>
</g>
</svg>
