<svg width="64" height="64" viewBox="0 0 64 64" fill="none" xmlns="http://www.w3.org/2000/svg">
<g id="Document Sync">
<path id="Shape" d="M19.2 6.39999C15.6653 6.39999 12.8 9.26537 12.8 12.8V29.4625C13.8313 29.1708 14.901 28.9708 16 28.8717V12.8C16 11.0327 17.4326 9.59999 19.2 9.59999H32V20.8C32 23.451 34.149 25.6 36.8 25.6H48V51.2C48 52.9673 46.5673 54.4 44.8 54.4H33.2809C32.6956 55.5449 31.9886 56.6172 31.177 57.6H44.8C48.3346 57.6 51.2 54.7346 51.2 51.2V23.7255C51.2 22.4524 50.6942 21.2315 49.7941 20.3314L37.2686 7.80588C36.3684 6.90571 35.1475 6.39999 33.8745 6.39999H19.2ZM47.3372 22.4H36.8C35.9163 22.4 35.2 21.6837 35.2 20.8V10.2627L47.3372 22.4ZM3.19995 46.4C3.19995 54.3529 9.64705 60.8 17.6 60.8C25.5529 60.8 32 54.3529 32 46.4C32 38.4471 25.5529 32 17.6 32C9.64705 32 3.19995 38.4471 3.19995 46.4ZM24 36.8C24.8836 36.8 25.6 37.5163 25.6 38.4V43.2C25.6 44.0836 24.8836 44.8 24 44.8H19.2C18.3163 44.8 17.6 44.0836 17.6 43.2C17.6 42.3163 18.3163 41.6 19.2 41.6H20.6982C20.5371 41.5109 20.372 41.4286 20.2033 41.3535C19.4183 41.0039 18.571 40.816 17.7118 40.801C16.8526 40.7859 15.9992 40.9441 15.2025 41.266C14.4057 41.5879 13.682 42.0669 13.0743 42.6745C12.4495 43.2993 11.4364 43.2993 10.8116 42.6745C10.1868 42.0497 10.1868 41.0366 10.8116 40.4118C11.723 39.5003 12.8087 38.7818 14.0038 38.299C15.1989 37.8161 16.479 37.5789 17.7678 37.6015C19.0565 37.624 20.3276 37.9059 21.5051 38.4302C21.8117 38.5668 22.1104 38.719 22.4 38.8862V38.4C22.4 37.5163 23.1163 36.8 24 36.8ZM21.1961 54.501C20.001 54.9839 18.7209 55.2211 17.4321 55.1985C16.1434 55.176 14.8723 54.8941 13.6948 54.3698C13.3882 54.2332 13.0895 54.081 12.8 53.9138V54.4C12.8 55.2836 12.0836 56 11.2 56C10.3163 56 9.59995 55.2836 9.59995 54.4V49.6C9.59995 48.7163 10.3163 48 11.2 48H16C16.8836 48 17.6 48.7163 17.6 49.6C17.6 50.4837 16.8836 51.2 16 51.2H14.5017C14.6628 51.2891 14.8279 51.3714 14.9966 51.4465C15.7816 51.7961 16.6289 51.984 17.4881 51.999C18.3473 52.014 19.2007 51.8559 19.9974 51.534C20.7942 51.2121 21.5179 50.7331 22.1256 50.1255C22.7504 49.5006 23.7635 49.5006 24.3883 50.1255C25.0131 50.7503 25.0131 51.7634 24.3883 52.3882C23.4769 53.2997 22.3912 54.0182 21.1961 54.501Z" fill="#07436F"/>
</g>
</svg>
