<svg width="64" height="64" viewBox="0 0 64 64" fill="none" xmlns="http://www.w3.org/2000/svg">
<g id="Document Checkmark">
<path id="Shape" d="M19.2 6.39999C15.6653 6.39999 12.8 9.26537 12.8 12.8V29.4625C13.8313 29.1708 14.901 28.9708 16 28.8717V12.8C16 11.0327 17.4326 9.59999 19.2 9.59999H32V20.8C32 23.451 34.149 25.6 36.8 25.6H48V51.2C48 52.9673 46.5673 54.4 44.8 54.4H33.2809C32.6956 55.5449 31.9886 56.6172 31.177 57.6H44.8C48.3346 57.6 51.2 54.7346 51.2 51.2V23.7255C51.2 22.4524 50.6942 21.2315 49.7941 20.3314L37.2686 7.80588C36.3684 6.90571 35.1475 6.39999 33.8745 6.39999H19.2ZM47.3372 22.4H36.8C35.9163 22.4 35.2 21.6837 35.2 20.8V10.2627L47.3372 22.4ZM32 46.4C32 54.3529 25.5529 60.8 17.6 60.8C9.64705 60.8 3.19995 54.3529 3.19995 46.4C3.19995 38.4471 9.64705 32 17.6 32C25.5529 32 32 38.4471 32 46.4ZM25.1313 40.4686C24.5065 39.8438 23.4934 39.8438 22.8686 40.4686L14.4 48.9373L12.3313 46.8686C11.7065 46.2438 10.6934 46.2438 10.0686 46.8686C9.44374 47.4935 9.44374 48.5065 10.0686 49.1314L13.2686 52.3314C13.8934 52.9562 14.9065 52.9562 15.5313 52.3314L25.1313 42.7314C25.7562 42.1065 25.7562 41.0935 25.1313 40.4686Z" fill="#07436F"/>
</g>
</svg>
