<svg width="56" height="56" viewBox="0 0 56 56" fill="none" xmlns="http://www.w3.org/2000/svg">
<g id="People Audience">
<path id="Shape" d="M34.4261 23.3333C36.6813 23.3333 38.5095 25.1615 38.5095 27.4167V35H38.5001V35.5833C38.5001 36.5498 37.7166 37.3333 36.7501 37.3333C35.7836 37.3333 35.0001 36.5498 35.0001 35.5833V30.3333H35.0095V27.4167C35.0095 27.0945 34.7483 26.8333 34.4261 26.8333H21.5879C21.2657 26.8333 21.0046 27.0945 21.0046 27.4167V35H21.0001V35.5833C21.0001 36.5498 20.2166 37.3333 19.2501 37.3333C18.2836 37.3333 17.5001 36.5498 17.5001 35.5833V30.3333H17.5046V27.4167C17.5046 25.1615 19.3328 23.3333 21.5879 23.3333H34.4261ZM47.8334 27.4167V35.5833C47.8334 36.5498 48.6169 37.3333 49.5834 37.3333C50.5499 37.3333 51.3334 36.5498 51.3334 35.5833V27.4167C51.3334 25.1615 49.5052 23.3333 47.2501 23.3333L39.3743 23.3311C40.1755 24.3004 40.6974 25.5091 40.8167 26.8338L47.2501 26.8333C47.5723 26.8333 47.8334 27.0945 47.8334 27.4167ZM4.66675 35.5833C4.66675 36.5498 5.45025 37.3333 6.41675 37.3333C7.38325 37.3333 8.16675 36.5498 8.16675 35.5833V27.4167C8.16675 27.0945 8.42792 26.8333 8.75008 26.8333L15.1974 26.8338C15.3166 25.5091 15.8385 24.3004 16.6397 23.3311L8.75008 23.3333C6.49492 23.3333 4.66675 25.1615 4.66675 27.4167V35.5833ZM28.0001 7C31.8661 7 35.0001 10.134 35.0001 14C35.0001 17.866 31.8661 21 28.0001 21C24.1341 21 21.0001 17.866 21.0001 14C21.0001 10.134 24.1341 7 28.0001 7ZM28.0001 10.5C26.0671 10.5 24.5001 12.067 24.5001 14C24.5001 15.933 26.0671 17.5 28.0001 17.5C29.9331 17.5 31.5001 15.933 31.5001 14C31.5001 12.067 29.9331 10.5 28.0001 10.5ZM43.1668 9.33333C46.3884 9.33333 49.0001 11.945 49.0001 15.1667C49.0001 18.3883 46.3884 21 43.1668 21C39.9451 21 37.3334 18.3883 37.3334 15.1667C37.3334 11.945 39.9451 9.33333 43.1668 9.33333ZM43.1668 12.8333C41.8781 12.8333 40.8334 13.878 40.8334 15.1667C40.8334 16.4553 41.8781 17.5 43.1668 17.5C44.4554 17.5 45.5001 16.4553 45.5001 15.1667C45.5001 13.878 44.4554 12.8333 43.1668 12.8333ZM12.8334 9.33333C16.0551 9.33333 18.6667 11.945 18.6667 15.1667C18.6667 18.3883 16.0551 21 12.8334 21C9.61175 21 7.00008 18.3883 7.00008 15.1667C7.00008 11.945 9.61175 9.33333 12.8334 9.33333ZM12.8334 12.8333C11.5448 12.8333 10.5001 13.878 10.5001 15.1667C10.5001 16.4553 11.5448 17.5 12.8334 17.5C14.1221 17.5 15.1667 16.4553 15.1667 15.1667C15.1667 13.878 14.1221 12.8333 12.8334 12.8333ZM6.41675 39.6667C5.45025 39.6667 4.66675 40.4502 4.66675 41.4167V42.5833C4.66675 47.4158 8.58426 51.3333 13.4167 51.3333H42.5834C47.4159 51.3333 51.3334 47.4158 51.3334 42.5833V41.4167C51.3334 40.4502 50.5499 39.6667 49.5834 39.6667H6.41675ZM13.4167 47.8333C10.7144 47.8333 8.48897 45.7916 8.19879 43.1667H47.8014C47.5112 45.7916 45.2857 47.8333 42.5834 47.8333H13.4167Z" fill="#07436F"/>
</g>
</svg>
