<svg width="56" height="56" viewBox="0 0 56 56" fill="none" xmlns="http://www.w3.org/2000/svg">
<g id="Receipt Add">
<path id="Shape" d="M16.8 5.59998C13.7073 5.59998 11.2 8.10718 11.2 11.2V25.7797C12.1024 25.5244 13.0385 25.3494 14 25.2628V11.2C14 9.65358 15.2537 8.39998 16.8 8.39998H36.4C37.9464 8.39998 39.2 9.65358 39.2 11.2V42H30.7373C30.6506 42.9615 30.4756 43.8976 30.2204 44.8H42C46.6392 44.8 50.4 41.0392 50.4 36.4V30.8H42V11.2C42 8.10718 39.4928 5.59998 36.4 5.59998H16.8ZM42 42V33.6H47.6V36.4C47.6 39.4928 45.0928 42 42 42ZM21 14C20.2269 14 19.6 14.6268 19.6 15.4C19.6 16.1732 20.2269 16.8 21 16.8H32.2C32.9732 16.8 33.6 16.1732 33.6 15.4C33.6 14.6268 32.9732 14 32.2 14H21ZM19.6 21C19.6 20.2268 20.2269 19.6 21 19.6H32.2C32.9732 19.6 33.6 20.2268 33.6 21C33.6 21.7732 32.9732 22.4 32.2 22.4H21C20.2269 22.4 19.6 21.7732 19.6 21ZM28 40.6C28 47.5588 22.3588 53.2 15.4 53.2C8.44126 53.2 2.80005 47.5588 2.80005 40.6C2.80005 33.6412 8.44126 28 15.4 28C22.3588 28 28 33.6412 28 40.6ZM16.8 35C16.8 34.2268 16.1732 33.6 15.4 33.6C14.6269 33.6 14 34.2268 14 35V39.2H9.80005C9.02685 39.2 8.40005 39.8268 8.40005 40.6C8.40005 41.3732 9.02685 42 9.80005 42H14L14 46.2C14 46.9732 14.6268 47.6 15.4 47.6C16.1732 47.6 16.8 46.9732 16.8 46.2V42H21C21.7732 42 22.4 41.3732 22.4 40.6C22.4 39.8268 21.7732 39.2 21 39.2H16.8V35Z" fill="#07436F"/>
</g>
</svg>
