<svg width="56" height="56" viewBox="0 0 56 56" fill="none" xmlns="http://www.w3.org/2000/svg">
<g id="Text Number List">
<path id="Shape" d="M12.8948 3.53819C13.5705 3.69176 14.0479 4.27244 14.0479 4.94083V16.4703C14.0479 17.2663 13.3777 17.9115 12.5509 17.9115C11.7241 17.9115 11.0539 17.2663 11.0539 16.4703V9.02869C10.4009 9.58407 9.62697 10.1213 8.72932 10.5534C7.98983 10.9094 7.09062 10.6208 6.72087 9.90891C6.35113 9.19699 6.65086 8.33131 7.39036 7.97535C8.62871 7.37926 9.5918 6.46494 10.2591 5.66186C10.5886 5.26543 10.8344 4.91 10.9952 4.65839C11.0694 4.54231 11.1419 4.4248 11.2077 4.30405C11.5309 3.71551 12.2098 3.38252 12.8948 3.53819ZM7.54149 24.6955C6.95683 24.1327 6.95676 23.2202 7.54134 22.6574L7.54501 22.6538L7.54927 22.6498L7.55956 22.6401L7.58718 22.6145C7.60869 22.5949 7.63645 22.5701 7.67034 22.5409C7.73803 22.4825 7.83059 22.4062 7.94699 22.3181C8.17907 22.1425 8.51033 21.9168 8.9325 21.6931C9.77546 21.2465 11.0089 20.7938 12.5437 20.7939L12.5689 20.7941C13.6894 20.8123 14.9055 21.0921 15.8827 21.7887C16.9151 22.5247 17.582 23.6637 17.582 25.1177C17.582 26.6965 16.8566 27.8009 15.8738 28.5893C15.1226 29.1921 14.1585 29.6474 13.3742 30.0177C13.2484 30.0772 13.1271 30.1345 13.012 30.1899C12.08 30.6385 11.3734 31.0337 10.8772 31.5592C10.6782 31.7699 10.4999 32.0161 10.3642 32.3237H16.085C16.9118 32.3237 17.582 32.969 17.582 33.7649C17.582 34.5609 16.9101 35.2061 16.0833 35.2061H8.59996C7.77318 35.2061 7.10295 34.5609 7.10295 33.7649C7.10295 31.9801 7.69933 30.6395 8.6618 29.6203C9.56906 28.6595 10.7337 28.064 11.673 27.6118C11.8234 27.5394 11.969 27.4701 12.1062 27.4046C12.9154 27.0191 13.5039 26.7386 13.9571 26.375C14.3778 26.0376 14.588 25.7007 14.588 25.1177C14.588 24.5971 14.3876 24.3095 14.1009 24.1051C13.7613 23.863 13.2114 23.6893 12.5309 23.6763C11.6249 23.6787 10.8909 23.9455 10.3761 24.2183C10.1182 24.3549 9.92228 24.4896 9.79721 24.5842C9.73503 24.6313 9.69152 24.6676 9.66779 24.688L9.64811 24.7054C9.06274 25.2582 8.12267 25.2549 7.54149 24.6955ZM10.8278 45.2941C10.8278 44.4981 11.4981 43.8529 12.3248 43.8529C13.3512 43.8529 13.9183 43.5742 14.204 43.3251C14.4862 43.079 14.6021 42.7736 14.5901 42.4657C14.5684 41.908 14.0336 40.9705 12.3248 40.9705C11.0898 40.9705 10.4501 41.2636 10.1612 41.4491C10.0098 41.5462 9.92846 41.6305 9.89607 41.6679L9.88382 41.6826C9.89646 41.6612 9.90861 41.6393 9.92023 41.617L9.91718 41.6228L9.91327 41.6302L9.90602 41.6435L9.89387 41.6648C9.88685 41.6768 9.87777 41.6905 9.87777 41.6905L9.88382 41.6826C9.49362 42.3449 8.62843 42.604 7.91282 42.2595C7.17332 41.9036 6.87359 41.0379 7.24333 40.326L7.24547 40.3219L7.2477 40.3176L7.25244 40.3087L7.26306 40.2892L7.289 40.2438C7.30845 40.2108 7.33232 40.1723 7.36106 40.1292C7.41853 40.0432 7.49562 39.9387 7.596 39.8227C7.79752 39.5899 8.0904 39.3139 8.50041 39.0508C9.33424 38.5156 10.5659 38.0881 12.3248 38.0881C15.4065 38.0881 17.4915 40.033 17.582 42.3577C17.6233 43.4169 17.2287 44.4782 16.3951 45.2941C17.2287 46.1099 17.6233 47.1712 17.582 48.2304C17.4915 50.5551 15.4065 52.5 12.3248 52.5C10.5659 52.5 9.33424 52.0725 8.50041 51.5374C8.0904 51.2742 7.79752 50.9982 7.596 50.7654C7.49562 50.6495 7.41853 50.545 7.36106 50.4589C7.33232 50.4158 7.30845 50.3774 7.289 50.3443L7.26306 50.2989L7.25244 50.2794L7.2477 50.2705L7.24547 50.2662L7.24333 50.2621C6.87359 49.5502 7.17332 48.6845 7.91282 48.3286C8.62843 47.9841 9.49362 48.2432 9.88382 48.9055L9.89607 48.9202C9.92846 48.9576 10.0098 49.0419 10.1612 49.1391C10.4501 49.3245 11.0898 49.6176 12.3248 49.6176C14.0336 49.6176 14.5684 48.6801 14.5901 48.1224C14.6021 47.8145 14.4862 47.5091 14.204 47.263C13.9183 47.0139 13.3512 46.7353 12.3248 46.7353C11.4981 46.7353 10.8278 46.09 10.8278 45.2941ZM26.25 10.5C25.2835 10.5 24.5 11.2835 24.5 12.25C24.5 13.2165 25.2835 14 26.25 14H47.25C48.2165 14 49 13.2165 49 12.25C49 11.2835 48.2165 10.5 47.25 10.5H26.25ZM26.25 24.5C25.2835 24.5 24.5 25.2835 24.5 26.25C24.5 27.2165 25.2835 28 26.25 28H47.25C48.2165 28 49 27.2165 49 26.25C49 25.2835 48.2165 24.5 47.25 24.5H26.25ZM26.25 38.5C25.2835 38.5 24.5 39.2835 24.5 40.25C24.5 41.2165 25.2835 42 26.25 42H47.25C48.2165 42 49 41.2165 49 40.25C49 39.2835 48.2165 38.5 47.25 38.5H26.25Z" fill="#07436F"/>
</g>
</svg>
